<!--?xml version="1.0" encoding="utf-8"?-->
<!-- Generator: Adobe Illustrator 18.1.1, SVG Export Plug-In . SVG Version: 6.00 Build 0)  -->

<svg version="1.1" id="_x32_" xmlns="http://www.w3.org/2000/svg" xmlns:xlink="http://www.w3.org/1999/xlink" x="0px" y="0px" viewBox="0 0 512 512" style="width: 256px; height: 256px; opacity: 1;" xml:space="preserve">
<style type="text/css">
	.st0{fill:#4B4B4B;}
</style>
<g>
	<path class="st0" d="M106.324,440.3L289.83,115.608l4.597-8.149l17.586-31.124l0.012-0.012
		c7.229-12.838,2.747-29.136-10.126-36.412l-48.02-27.136c-12.86-7.264-29.17-2.747-36.445,10.114l-17.586,31.136L11.756,386.854
		c-3.564,6.311-5.689,13.322-6.23,20.54l-5.472,73.868c-0.574,7.701,3.357,15.045,10.081,18.85
		c6.734,3.804,15.044,3.367,21.354-1.092l60.456-42.802C97.842,452.034,102.762,446.598,106.324,440.3z M233.718,32.085
		c2.184-3.839,7.08-5.207,10.954-3.022l48.02,27.124c3.85,2.172,5.218,7.058,3.034,10.954L282.75,90.116l-0.655,1.16l-62.019-35.055
		L233.718,32.085z M28.031,396.062L215.478,64.359l26.941,15.228L53.65,413.589l-26.802-15.137
		C27.226,397.647,27.594,396.832,28.031,396.062z M81.131,440.955l-38.516,27.262L20.698,455.84l3.482-47.067l0.139-1.023
		l57.617,32.573L81.131,440.955z M90.038,431.105c-0.437,0.77-0.931,1.506-1.436,2.241l-26.804-15.148L250.557,84.196l26.941,15.218
		L90.038,431.105z" style="fill: rgb(75, 75, 75);"></path>
	<path class="st0" d="M504.989,486.32H102.866c-3.874,0-7.011,3.15-7.011,7.023c0,3.862,3.138,7.011,7.011,7.011h402.124
		c3.873,0,7.011-3.15,7.011-7.011C512,489.469,508.862,486.32,504.989,486.32z" style="fill: rgb(75, 75, 75);"></path>
</g>
</svg>
